<?xml version="1.0" standalone="no"?>
<!DOCTYPE svg PUBLIC "-//W3C//DTD SVG 20010904//EN"
 "http://www.w3.org/TR/2001/REC-SVG-20010904/DTD/svg10.dtd">
<svg version="1.0" xmlns="http://www.w3.org/2000/svg"
 width="1254.000000pt" height="1254.000000pt" viewBox="0 0 1254.000000 1254.000000"
 preserveAspectRatio="xMidYMid meet">

<g transform="translate(0.000000,1254.000000) scale(0.100000,-0.100000)"
stroke="none">
<path d="M0 6270 l0 -6270 6270 0 6270 0 0 6270 0 6270 -6270 0 -6270 0 0
-6270z m7133 3929 c67 -6 140 -15 162 -20 36 -8 34 -8 -15 -4 -602 54 -1165
-51 -1692 -316 -969 -486 -1653 -1419 -1820 -2479 -19 -122 -22 -185 -23 -400
0 -154 5 -291 13 -345 72 -510 252 -940 558 -1332 112 -143 150 -178 243 -219
174 -76 446 -256 526 -347 67 -76 119 -185 112 -236 l-5 -39 42 13 c22 8 50
16 61 18 18 3 17 5 -7 15 -33 14 -52 42 -77 113 -38 110 -94 187 -204 280 -32
27 -53 49 -47 49 7 0 52 -16 99 -35 88 -35 254 -79 273 -73 6 2 -15 14 -48 27
-163 62 -409 216 -524 327 -25 24 -51 44 -57 44 -6 0 -38 31 -70 69 -32 38
-61 70 -65 70 -4 1 -2 -14 3 -31 12 -42 12 -43 -6 -28 -32 27 -176 232 -235
334 -238 415 -321 889 -229 1314 12 54 22 98 24 100 2 2 2 -81 1 -185 -1 -190
3 -228 46 -413 29 -126 57 -217 89 -291 34 -80 119 -232 126 -226 2 3 -2 18
-10 34 -26 49 -76 199 -107 319 -94 367 -50 749 129 1119 107 223 197 350 375
533 140 144 195 185 108 82 -187 -222 -319 -481 -377 -738 -26 -113 -49 -307
-43 -362 l4 -35 12 45 c88 322 241 589 472 821 231 233 533 406 855 490 373
97 721 89 1083 -26 120 -38 153 -58 42 -25 -185 55 -262 64 -520 64 -216 1
-257 -2 -346 -22 -108 -23 -231 -62 -298 -93 -35 -16 -36 -18 -11 -13 284 57
474 56 709 -3 56 -14 106 -28 113 -32 7 -3 -52 -6 -130 -6 -141 0 -297 -19
-297 -37 0 -5 4 -6 10 -3 13 8 207 -12 300 -31 250 -52 508 -181 711 -357 126
-109 299 -328 369 -468 28 -56 15 -42 -43 46 -60 92 -119 160 -215 248 -491
451 -1240 497 -1785 110 -104 -74 -276 -245 -349 -349 -171 -241 -269 -523
-293 -849 -7 -90 6 -254 30 -368 51 -248 174 -487 345 -669 90 -97 235 -212
256 -204 8 3 13 0 11 -6 -5 -27 253 -137 358 -152 l40 -6 -45 14 c-114 36
-164 54 -152 55 6 1 12 6 12 12 0 8 -4 8 -14 0 -9 -8 -21 -8 -37 -2 -21 9 -22
10 -4 11 19 1 18 2 -2 10 -13 5 -23 12 -23 15 0 4 6 3 13 0 6 -4 4 0 -6 8 -11
9 -15 21 -10 32 4 13 3 16 -6 11 -8 -5 -11 -3 -10 5 1 8 -1 22 -5 31 -4 9 -2
27 4 40 10 20 9 21 -3 6 -12 -15 -14 -15 -24 1 -6 10 -10 34 -8 54 3 34 0 38
-48 69 -52 33 -128 94 -202 162 -22 21 2 4 52 -36 124 -97 243 -167 383 -225
l115 -48 180 0 c168 1 278 14 350 42 11 4 16 3 12 -4 -7 -12 -93 -43 -185 -69
-34 -9 -65 -21 -68 -25 -8 -14 140 -10 255 6 120 18 316 67 371 94 21 10 77
49 126 87 91 71 294 260 294 274 0 5 -51 -14 -112 -42 -245 -108 -533 -184
-738 -193 l-95 -5 80 15 c203 38 441 125 663 243 128 67 151 83 217 154 211
224 349 466 400 698 30 136 33 77 4 -87 -36 -208 -39 -227 -34 -231 2 -2 8 10
12 27 7 27 21 39 93 77 47 24 74 37 61 27 -12 -10 -59 -49 -103 -88 -77 -68
-81 -73 -124 -180 -25 -60 -48 -117 -52 -125 -8 -19 17 -4 168 106 214 156
518 425 790 698 112 113 134 148 68 109 -83 -50 -113 -65 -91 -46 12 10 34 26
48 36 15 11 24 21 21 25 -3 3 -36 -15 -73 -40 -71 -47 -125 -77 -108 -61 6 6
51 36 100 68 50 32 123 82 162 112 73 53 90 62 78 42 -10 -15 35 11 68 41 16
14 34 34 39 45 6 11 -12 -1 -40 -27 -28 -27 -54 -48 -58 -48 -4 0 29 34 74 76
96 89 256 263 248 271 -2 3 -31 -11 -63 -30 -131 -78 -137 -73 -15 15 48 34
114 86 148 114 l60 51 -4 -58 c-7 -89 1 -109 44 -109 41 0 82 20 144 69 37 29
42 31 27 11 -29 -42 -64 -113 -122 -246 -52 -118 -87 -189 -69 -139 46 132 62
188 57 201 -5 13 -7 12 -17 -4 -28 -49 -102 -150 -129 -174 -16 -15 -26 -32
-23 -37 4 -5 1 -13 -5 -17 -8 -5 -9 -3 -4 7 14 24 -9 -2 -58 -68 -49 -65 -59
-85 -29 -62 15 13 16 12 4 -3 -8 -10 -19 -16 -24 -15 -6 1 -13 -4 -16 -12 -3
-9 0 -11 8 -6 9 5 11 4 6 -4 -4 -6 -11 -9 -16 -6 -4 3 -81 -91 -171 -208 -90
-116 -218 -282 -285 -367 -484 -617 -1073 -1183 -1498 -1442 -79 -48 -124 -65
-74 -27 14 11 37 29 50 40 23 21 23 21 -12 0 -158 -96 -431 -226 -440 -211 -3
5 -55 -7 -115 -26 -233 -73 -481 -109 -702 -102 l-142 5 37 -18 c142 -72 292
-255 292 -359 0 -22 -9 -58 -20 -79 -21 -41 -67 -84 -81 -76 -4 3 -13 -4 -19
-15 -36 -67 -239 -100 -404 -65 -88 19 -201 71 -232 108 -35 42 -32 81 8 98
31 13 30 13 -78 35 -60 11 -110 20 -111 20 -1 -1 2 -19 8 -40 8 -30 7 -44 -8
-73 -24 -50 -57 -71 -128 -84 -267 -49 -640 213 -648 456 -2 45 2 59 18 73 11
9 28 27 38 38 18 22 18 22 -68 64 -231 111 -367 358 -280 506 15 25 25 47 23
48 -1 1 -16 10 -31 20 -16 10 -46 33 -68 53 -43 39 -42 40 -63 -43 l-12 -46
-80 85 c-75 79 -198 248 -239 327 -36 69 -25 11 21 -111 64 -170 141 -322 213
-418 22 -30 25 -42 23 -105 -2 -42 4 -96 13 -131 19 -69 90 -224 132 -287 48
-71 48 -71 12 -52 -68 34 -206 135 -303 220 l-99 87 6 -39 c4 -21 10 -50 14
-64 15 -55 -210 213 -332 395 -233 349 -383 751 -440 1178 -21 154 -31 429
-17 453 10 17 11 17 12 -9 1 -83 63 -309 126 -457 46 -109 140 -284 129 -240
-3 14 -24 93 -45 176 -134 527 -124 1173 25 1680 59 199 174 484 253 624 51
92 165 271 169 266 2 -2 -12 -37 -32 -77 -129 -255 -225 -607 -256 -932 -17
-181 -7 -534 20 -702 79 -493 278 -980 552 -1351 37 -51 72 -95 78 -98 6 -4
-5 25 -24 63 -102 206 -191 501 -236 776 -26 167 -36 502 -20 681 72 786 434
1536 1030 2133 460 461 1029 784 1666 945 119 31 364 73 490 85 134 12 469 13
608 0z m1554 -746 c33 -134 99 -189 258 -216 76 -13 84 -27 14 -27 -16 0 -59
-10 -96 -22 -121 -40 -168 -107 -195 -280 l-12 -82 -13 87 c-23 165 -77 239
-198 276 -37 12 -78 21 -90 21 -64 0 -54 15 18 27 119 20 191 62 227 133 21
42 50 153 51 201 1 33 2 32 11 -11 5 -25 16 -73 25 -107z m-4833 -80 c15 -12
45 -28 69 -34 52 -15 69 -29 37 -29 -38 -1 -107 -36 -121 -62 -7 -12 -20 -47
-29 -77 l-17 -54 -7 38 c-13 69 -43 115 -89 136 -23 10 -52 19 -64 19 -13 0
-23 5 -23 10 0 6 9 10 20 10 36 0 100 32 120 60 11 15 25 51 32 80 l12 52 17
-63 c11 -41 27 -72 43 -86z m2321 -299 c-5 -2 -66 -20 -135 -39 -292 -84 -671
-280 -950 -493 -73 -55 -195 -165 -292 -262 -92 -91 -159 -157 -150 -145 128
160 188 228 288 325 143 139 276 245 248 198 -5 -8 0 -7 10 2 18 14 18 15 -5
20 -20 5 -6 17 96 77 228 135 482 235 775 304 66 15 142 24 115 13z m4259
-296 c-21 -71 -95 -250 -140 -339 -152 -303 -414 -602 -759 -867 -70 -54 -82
-60 -94 -47 -13 13 -12 18 10 42 42 46 69 90 69 112 0 12 24 58 54 104 95 147
101 172 16 73 -30 -34 -143 -158 -250 -275 -138 -149 -196 -206 -199 -194 -2
10 2 48 9 84 10 51 21 76 46 105 29 32 34 45 34 86 0 38 9 64 40 120 22 39 38
73 35 76 -3 3 -20 -12 -38 -33 -33 -38 -33 -38 -104 -36 -82 3 -117 -10 -206
-72 -34 -23 -69 -47 -77 -52 -14 -8 59 89 168 225 40 50 53 59 148 97 57 23
138 52 180 65 74 22 79 25 132 93 245 308 513 515 848 655 96 40 96 40 78 -22z
m-2536 -161 c21 -17 14 -65 -13 -83 -44 -29 -94 9 -81 62 10 39 57 49 94 21z
m1966 -829 c-24 -140 -65 -284 -87 -303 -7 -5 -51 -55 -99 -110 -47 -55 -98
-111 -114 -125 -24 -22 -26 -22 -20 -5 51 131 56 174 31 245 l-15 42 103 96
c56 53 122 118 147 144 25 26 48 47 52 47 4 1 5 -14 2 -31z m-1664 -1048 c-41
-38 -72 -70 -68 -70 4 0 38 16 75 36 37 20 59 28 48 19 -11 -9 -19 -20 -18
-25 2 -5 -5 -6 -14 -3 -11 4 -14 3 -9 -5 5 -8 1 -10 -10 -5 -13 5 -15 3 -9 -7
5 -9 4 -11 -3 -6 -7 4 -12 3 -12 -2 0 -5 -12 -15 -27 -22 -52 -24 -163 -69
-163 -66 0 2 17 15 38 29 20 14 82 64 137 111 55 47 102 86 105 85 3 0 -29
-31 -70 -69z m1377 -158 c19 -51 51 -76 119 -93 l49 -13 -45 -11 c-85 -22
-113 -50 -135 -135 l-12 -45 -16 55 c-9 31 -27 66 -39 77 -27 26 -88 53 -120
54 -13 0 3 9 36 19 75 24 103 51 123 120 11 35 18 48 21 35 2 -11 11 -39 19
-63z m-1005 -664 c-5 -7 -43 -58 -84 -113 -84 -112 -205 -245 -318 -351 -77
-71 -183 -162 -210 -179 -19 -12 3 9 85 78 110 94 214 200 208 210 -3 6 -1 7
5 3 10 -6 146 134 137 142 -2 3 -34 -22 -71 -54 -139 -124 -298 -245 -416
-319 -95 -59 -61 -32 96 79 166 117 315 245 456 394 103 109 141 145 112 110z
m482 -304 c35 -35 11 -94 -38 -94 -40 0 -59 59 -29 92 20 22 46 23 67 2z m551
-166 c-171 -581 -427 -1021 -829 -1424 -277 -276 -555 -473 -947 -670 -139
-69 -408 -184 -433 -184 -8 0 -18 -5 -21 -11 -5 -7 14 -9 61 -4 38 3 98 7 134
9 80 5 296 74 491 156 304 129 676 364 883 559 110 104 51 32 -89 -110 -368
-371 -797 -635 -1315 -811 -327 -111 -619 -167 -977 -189 -563 -34 -1205 101
-1725 362 -94 47 -274 154 -340 201 l-47 34 207 -4 c302 -6 564 29 838 112
103 31 347 126 340 133 -2 3 -33 -2 -68 -10 -99 -25 -173 -36 -312 -47 -212
-17 -216 -14 -51 34 191 56 289 94 390 152 99 57 157 80 221 89 27 3 78 13
113 22 35 8 78 12 95 9 35 -7 100 17 361 131 175 77 476 228 490 247 6 7 21
17 34 21 53 16 345 202 511 324 113 83 267 208 342 278 74 69 102 85 47 26
-19 -21 -84 -91 -144 -156 -181 -197 -364 -356 -680 -591 -321 -240 -498 -350
-810 -503 -119 -59 -142 -73 -110 -69 22 3 67 8 100 11 l60 6 -85 -51 c-107
-64 -255 -137 -389 -190 -113 -45 -358 -116 -433 -126 -26 -4 -46 -10 -43 -14
2 -4 57 -10 120 -14 95 -6 129 -13 188 -37 85 -35 253 -81 387 -106 76 -14
148 -17 360 -17 269 1 386 13 270 28 -229 30 -464 101 -535 161 -19 16 -18 16
23 11 23 -4 42 -4 42 -2 0 2 -34 23 -75 45 -41 23 -75 43 -75 45 0 2 44 29 98
59 54 31 143 88 197 128 l99 71 83 -16 c156 -32 234 -32 363 -1 428 103 903
349 1260 653 119 101 116 96 -20 -39 -244 -243 -533 -453 -839 -610 -62 -33
-104 -59 -92 -59 49 0 234 44 356 85 623 207 1206 661 1581 1230 137 208 266
466 329 653 15 46 29 81 32 78 3 -2 -7 -47 -22 -98z m-1695 -212 c0 -2 -8 -10
-17 -17 -16 -13 -17 -12 -4 4 13 16 21 21 21 13z m-4899 -626 c146 -165 315
-305 510 -421 54 -32 101 -59 104 -59 3 0 0 9 -7 21 -11 18 -10 23 12 41 89
73 496 -109 627 -280 53 -70 42 -95 -57 -125 -49 -15 517 -214 620 -218 21 -1
20 -2 -10 -11 -21 -6 -100 -8 -200 -5 -253 9 -455 60 -699 177 -399 193 -722
502 -969 927 -45 77 -55 106 -19 58 12 -16 52 -64 88 -105z m2198 -30 c11 -24
11 -24 -3 -6 -9 11 -16 24 -16 30 0 12 5 7 19 -24z"/>
<path d="M7634 6238 l-19 -23 23 19 c21 18 27 26 19 26 -2 0 -12 -10 -23 -22z"/>
<path d="M5617 5307 c47 -41 95 -71 197 -120 120 -58 99 -39 -27 25 -62 31
-131 73 -154 92 -22 20 -44 36 -47 36 -3 0 11 -15 31 -33z"/>
<path d="M6368 5033 c7 -3 16 -2 19 1 4 3 -2 6 -13 5 -11 0 -14 -3 -6 -6z"/>
<path d="M6023 4993 c15 -2 37 -2 50 0 12 2 0 4 -28 4 -27 0 -38 -2 -22 -4z"/>
<path d="M9875 8354 c-116 -60 -182 -208 -120 -269 89 -90 309 105 264 234 -6
17 -19 36 -29 41 -27 15 -81 12 -115 -6z"/>
<path d="M8448 5778 c-34 -43 -61 -83 -41 -63 22 22 85 105 80 105 -2 0 -20
-19 -39 -42z"/>
</g>
</svg>
